<svg width="75" height="75" viewBox="0 0 75 75" fill="none" xmlns="http://www.w3.org/2000/svg">
<g filter="url(#filter0_d)">
<circle cx="37.5" cy="33.5" r="27.5" fill="white"/>
</g>
<g filter="url(#filter1_d)">
<path d="M29.3761 24.7868C28.4377 25.658 27.2854 26.8172 26.9056 27.5768C26.0595 29.2691 27.3287 33.9229 31.9826 38.9999C35.7057 43.0614 40.3032 44.8103 42.9826 45.0923C44.7008 45.2732 46.303 43.5868 47.2315 42.3534C47.7637 41.6464 47.6375 40.6792 47.0221 40.0433L44.5809 37.5208C43.7364 36.6481 42.3186 36.7275 41.5061 37.6301C40.9543 38.2431 40.376 38.8225 40.0211 39C38.6458 39.6877 32.4057 33.0769 32.8287 31.8075C33.1369 31.3453 33.6696 30.8269 34.2223 30.3545C35.1965 29.5221 35.3321 28.0055 34.4049 27.121L32.0075 24.8342C31.2706 24.1313 30.1224 24.0939 29.3761 24.7868Z" fill="white"/>
<path d="M29.3761 24.7868C28.4377 25.658 27.2854 26.8172 26.9056 27.5768C26.0595 29.2691 27.3287 33.9229 31.9826 38.9999C35.7057 43.0614 40.3032 44.8103 42.9826 45.0923C44.7008 45.2732 46.303 43.5868 47.2315 42.3534C47.7637 41.6464 47.6375 40.6792 47.0221 40.0433L44.5809 37.5208C43.7364 36.6481 42.3186 36.7275 41.5061 37.6301C40.9543 38.2431 40.376 38.8225 40.0211 39C38.6458 39.6877 32.4057 33.0769 32.8287 31.8075C33.1369 31.3453 33.6696 30.8269 34.2223 30.3545C35.1965 29.5221 35.3321 28.0055 34.4049 27.121L32.0075 24.8342C31.2706 24.1313 30.1224 24.0939 29.3761 24.7868Z" stroke="#3E4958" stroke-width="2"/>
</g>
<path fill-rule="evenodd" clip-rule="evenodd" d="M39.175 21.9231C38.6228 21.9231 38.175 22.3708 38.175 22.9231C38.175 23.4754 38.6228 23.9231 39.175 23.9231C40.9343 23.9231 43.1304 25.0108 44.9299 26.7603C46.7254 28.5059 47.9058 30.6965 47.9058 32.6539C47.9058 33.2062 48.3535 33.6539 48.9058 33.6539C49.4581 33.6539 49.9058 33.2062 49.9058 32.6539C49.9058 29.9574 48.3362 27.2826 46.324 25.3263C44.3158 23.3739 41.6465 21.9231 39.175 21.9231ZM39.175 26.1539C38.6228 26.1539 38.175 26.6016 38.175 27.1539C38.175 27.7062 38.6228 28.1539 39.175 28.1539C39.314 28.1539 39.6556 28.2117 40.137 28.4055C40.5987 28.5913 41.1259 28.8771 41.6309 29.2673C42.6397 30.0468 43.507 31.1968 43.6812 32.7643C43.7422 33.3132 44.2366 33.7087 44.7855 33.6477C45.3344 33.5868 45.7299 33.0923 45.6689 32.5434C45.42 30.3033 44.1719 28.7032 42.8538 27.6847C42.1953 27.1759 41.5062 26.8006 40.8837 26.5501C40.281 26.3075 39.6707 26.1539 39.175 26.1539Z" fill="#3E4958"/>
<defs>
<filter id="filter0_d" x="0" y="0" width="75" height="75" filterUnits="userSpaceOnUse" color-interpolation-filters="sRGB">
<feFlood flood-opacity="0" result="BackgroundImageFix"/>
<feColorMatrix in="SourceAlpha" type="matrix" values="0 0 0 0 0 0 0 0 0 0 0 0 0 0 0 0 0 0 127 0"/>
<feOffset dy="4"/>
<feGaussianBlur stdDeviation="5"/>
<feColorMatrix type="matrix" values="0 0 0 0 0 0 0 0 0 0 0 0 0 0 0 0 0 0 0.15 0"/>
<feBlend mode="normal" in2="BackgroundImageFix" result="effect1_dropShadow"/>
<feBlend mode="normal" in="SourceGraphic" in2="effect1_dropShadow" result="shape"/>
</filter>
<filter id="filter1_d" x="10.6611" y="12.2865" width="52.9061" height="52.8194" filterUnits="userSpaceOnUse" color-interpolation-filters="sRGB">
<feFlood flood-opacity="0" result="BackgroundImageFix"/>
<feColorMatrix in="SourceAlpha" type="matrix" values="0 0 0 0 0 0 0 0 0 0 0 0 0 0 0 0 0 0 127 0"/>
<feOffset dy="4"/>
<feGaussianBlur stdDeviation="7.5"/>
<feColorMatrix type="matrix" values="0 0 0 0 0 0 0 0 0 0 0 0 0 0 0 0 0 0 0.15 0"/>
<feBlend mode="normal" in2="BackgroundImageFix" result="effect1_dropShadow"/>
<feBlend mode="normal" in="SourceGraphic" in2="effect1_dropShadow" result="shape"/>
</filter>
</defs>
</svg>
