<svg width="24" height="24" viewBox="0 0 24 24" fill="none" xmlns="http://www.w3.org/2000/svg">
<path d="M12 0C15.314 0 18.3137 1.34276 20.485 3.51503C22.6562 5.68628 24 8.68704 24 12C24 15.313 22.6572 18.3137 20.485 20.485C18.3137 22.6562 15.313 24 12 24C8.68603 24 5.68628 22.6572 3.51503 20.485C1.34276 18.3137 0 15.313 0 12C0 8.68704 1.34276 5.68628 3.51503 3.51503C5.68628 1.34276 8.68603 0 12 0ZM11.0189 6.08234C11.0189 5.71963 11.313 5.42561 11.6757 5.42561C12.0384 5.42561 12.3324 5.71963 12.3324 6.08234V12.1445L16.8932 14.8482C17.2043 15.0321 17.3084 15.4342 17.1245 15.7464C16.9406 16.0576 16.5385 16.1617 16.2263 15.9778L11.3776 13.1033C11.1644 12.9942 11.0189 12.7729 11.0189 12.5183V6.08234ZM19.5565 4.44355C17.6226 2.50972 14.9513 1.31346 12 1.31346C9.04875 1.31346 6.37737 2.50972 4.44355 4.44355C2.50972 6.37737 1.31346 9.04875 1.31346 12C1.31346 14.9513 2.50972 17.6226 4.44355 19.5565C6.37737 21.4903 9.04875 22.6865 12 22.6865C14.9513 22.6865 17.6226 21.4903 19.5565 19.5565C21.4903 17.6226 22.6865 14.9513 22.6865 12C22.6865 9.04875 21.4903 6.37737 19.5565 4.44355Z" fill="#4B545A"/>
</svg>
