<svg xmlns="http://www.w3.org/2000/svg" xmlns:xlink="http://www.w3.org/1999/xlink" viewBox="0 0 50 50" fill="#5B5B5B">
  <path d="M19.546875 3C9.964844 3 2 9.960938 2 18.714844C2 22.917969 3.878906 26.734375 6.859375 29.550781L6.765625 30.011719C6.09375 31.980469 4.441406 33.09375 3.460938 33.449219C2.890625 33.652344 2.417969 33.960938 2.15625 34.5C1.898438 35.035156 2.054688 35.777344 2.445313 36.164063C3.359375 37.082031 4.546875 36.992188 5.414063 37C8.675781 37.039063 12.519531 35.328125 14.847656 34.164063L14.875 34.152344L15.671875 33.691406L15.367188 33.597656L15.402344 33.605469C16.699219 33.90625 18.058594 34 19.394531 34C27.820313 34 35.070313 28.964844 36.671875 21.71875L36.671875 21.714844C36.886719 20.75 37 19.746094 37 18.714844C37 9.96875 29.128906 3 19.546875 3 Z M 19.546875 5C28.164063 5 35 11.171875 35 18.714844C35 19.601563 34.902344 20.460938 34.71875 21.285156C33.351563 27.472656 27.027344 32 19.394531 32C18.160156 32 16.945313 31.90625 15.859375 31.65625L15.421875 31.527344L13.941406 32.378906C11.730469 33.484375 7.917969 35.03125 5.4375 35C5.097656 35 5.066406 34.933594 4.828125 34.90625C6.25 34.210938 7.890625 32.949219 8.671875 30.628906L8.6875 30.578125L9.046875 28.890625L8.605469 28.5C5.742188 25.996094 4 22.523438 4 18.714844C4 11.179688 10.929688 5 19.546875 5 Z M 11 12L11 14L28 14L28 12 Z M 11 17L11 19L28 19L28 17 Z M 38.785156 21.195313C38.734375 21.515625 38.699219 21.835938 38.628906 22.152344C38.550781 22.496094 38.449219 22.832031 38.347656 23.171875C42.953125 24.949219 45.984375 28.53125 45.984375 32.511719C45.984375 35.367188 44.5 38.035156 41.796875 40.03125L41.253906 40.433594L41.421875 41.089844C41.960938 43.15625 43.851563 44.222656 45.160156 44.933594C43.085938 45.214844 38.578125 44.746094 36.3125 42.066406L35.933594 41.613281L35.355469 41.730469C34.445313 41.910156 33.390625 42 32.125 42C25.90625 42 20.855469 39.589844 18.890625 35.984375C18.078125 35.96875 17.320313 35.914063 16.609375 35.828125C18.464844 40.742188 24.429688 44 32.125 44C33.277344 44 34.28125 43.929688 35.183594 43.792969C37.390625 46.027344 40.988281 46.996094 43.902344 46.996094C44.09375 46.996094 44.285156 46.992188 44.46875 46.984375C46.160156 46.90625 47.261719 46.515625 47.75 45.824219C47.964844 45.511719 48.039063 45.144531 47.953125 44.785156C47.785156 44.070313 47.128906 43.71875 46.21875 43.230469C45.324219 42.746094 44.148438 42.109375 43.597656 41.160156C46.398438 38.847656 47.984375 35.738281 47.984375 32.511719C47.984375 27.605469 44.316406 23.226563 38.785156 21.195313 Z M 11 22L11 24L23 24L23 22 Z M 36.015625 28C35.515625 28.703125 34.964844 29.375 34.359375 30L39 30L39 28 Z M 30.589844 33C29.210938 33.828125 27.699219 34.503906 26.09375 35L39 35L39 33Z" fill="#5B5B5B" />
</svg>