<svg width="59" height="21" viewBox="0 0 59 21" fill="none" xmlns="http://www.w3.org/2000/svg">
<path fill-rule="evenodd" clip-rule="evenodd" d="M49.7632 11.4764C52.3438 11.4764 54.4361 13.5687 54.4361 16.1493C54.4361 18.7299 52.3438 20.8222 49.7632 20.8222C47.1826 20.8222 45.0904 18.7299 45.0904 16.1493C45.0904 13.5687 47.1826 11.4764 49.7632 11.4764ZM11.0109 13.9182V15.5987H12.6915C12.4904 14.7752 11.8392 14.1193 11.0109 13.9182ZM12.6962 16.6951H11.0109V18.3756C11.8392 18.1793 12.4904 17.5234 12.6962 16.6951ZM9.91454 18.3804V16.6999H8.23403C8.43512 17.5234 9.09104 18.1745 9.91454 18.3804ZM8.23403 15.6035H9.91454V13.923C9.09104 14.1193 8.43512 14.7752 8.23403 15.6035ZM50.3138 13.9182V15.5987H51.9943C51.7932 14.7752 51.1421 14.1193 50.3138 13.9182ZM51.9943 16.6951H50.3138V18.3756C51.1421 18.1793 51.7932 17.5234 51.9943 16.6951ZM49.2174 18.3804V16.6999H47.5369C47.738 17.5234 48.3891 18.1745 49.2174 18.3804ZM47.5321 15.6035H49.2126V13.923C48.3891 14.1193 47.738 14.7752 47.5321 15.6035ZM23.598 6.1237C22.8607 5.95612 22.1282 5.95612 21.3908 5.98964C27.1601 2.95897 29.4247 0.991197 36.1803 1.38858L35.2515 7.55046L24.1295 7.97178C24.23 7.67972 24.2875 7.52173 24.3066 7.22967C24.3593 6.3966 24.3497 6.29606 23.598 6.1237ZM37.88 1.4987L36.6734 7.46906L48.2264 6.99986C49.4137 6.95198 49.6196 6.43011 48.9014 5.42947C48.5759 4.97463 48.212 4.52458 47.7955 4.07932C44.8079 0.890654 41.8347 1.55137 37.88 1.4987ZM0.219288 13.0612H0.573584C0.793822 12.0845 1.22951 11.2035 1.87107 10.4135C3.27868 8.66122 3.92024 8.88146 6.0125 8.50322L17.7234 6.29606C20.3232 4.44797 23.4592 2.80098 27.2846 1.41252C30.8323 0.119822 33.3364 -0.00466074 37.1331 0.000127039C39.3067 0.00491482 41.5091 0.134185 43.745 0.4023C44.8797 0.474117 45.9905 0.627326 47.0821 0.847564C48.3891 1.11089 49.6723 1.47476 50.9314 1.90566L55.6235 4.61555C57.0071 5.41511 57.304 6.34872 57.4811 7.87602L58.1418 13.516H58.8265V16.6329C58.7307 17.6814 58.319 17.8394 57.4476 17.8394H56.3129C56.7534 7.98135 42.8832 6.29606 43.1848 18.6198H16.6414C18.4272 10.1215 9.85709 7.17222 5.64863 12.0318C4.37029 13.5112 3.92503 15.5317 4.03994 17.9208H0.97097C0.726793 17.8059 0.535282 17.6479 0.391648 17.4516C-0.111069 16.7669 -0.000949646 14.7034 0.0373526 13.5112C0.0421404 13.1905 -0.058403 13.0612 0.219288 13.0612ZM10.4651 11.4764C13.0457 11.4764 15.138 13.5687 15.138 16.1493C15.138 18.7299 13.0457 20.8222 10.4651 20.8222C7.88452 20.8222 5.79226 18.7299 5.79226 16.1493C5.79226 13.5687 7.88452 11.4764 10.4651 11.4764Z" fill="#4B545A"/>
</svg>
