<svg xmlns="http://www.w3.org/2000/svg" xmlns:xlink="http://www.w3.org/1999/xlink" viewBox="0 0 50 50" fill="#5B5B5B">
  <path d="M25 0.0625C17.316406 0.0625 11.0625 6.316406 11.0625 14C11.0625 20.367188 14.402344 27.667969 17.6875 33.46875C20.972656 39.269531 24.25 43.5625 24.25 43.5625C24.425781 43.800781 24.703125 43.945313 25 43.945313C25.296875 43.945313 25.574219 43.800781 25.75 43.5625C25.75 43.5625 29.03125 39.210938 32.3125 33.375C35.59375 27.539063 38.9375 20.234375 38.9375 14C38.9375 6.316406 32.683594 0.0625 25 0.0625 Z M 25 1.9375C31.679688 1.9375 37.0625 7.320313 37.0625 14C37.0625 19.554688 33.90625 26.75 30.6875 32.46875C28.058594 37.144531 25.871094 40.210938 25 41.40625C24.125 40.226563 21.9375 37.199219 19.3125 32.5625C16.097656 26.882813 12.9375 19.703125 12.9375 14C12.9375 7.320313 18.320313 1.9375 25 1.9375 Z M 25 8.03125C21.164063 8.03125 18.03125 11.164063 18.03125 15C18.03125 18.835938 21.164063 21.96875 25 21.96875C28.835938 21.96875 31.96875 18.835938 31.96875 15C31.96875 11.164063 28.835938 8.03125 25 8.03125 Z M 25 9.96875C27.792969 9.96875 30.03125 12.207031 30.03125 15C30.03125 17.792969 27.792969 20.03125 25 20.03125C22.207031 20.03125 19.96875 17.792969 19.96875 15C19.96875 12.207031 22.207031 9.96875 25 9.96875 Z M 15.15625 34.15625C11.15625 34.742188 7.773438 35.667969 5.28125 36.875C4.035156 37.476563 3.003906 38.148438 2.25 38.9375C1.496094 39.726563 1 40.707031 1 41.75C1 43.179688 1.914063 44.402344 3.21875 45.375C4.523438 46.347656 6.285156 47.132813 8.4375 47.8125C12.738281 49.171875 18.5625 50 25 50C31.4375 50 37.261719 49.171875 41.5625 47.8125C43.714844 47.132813 45.476563 46.347656 46.78125 45.375C48.085938 44.402344 49 43.179688 49 41.75C49 40.710938 48.503906 39.726563 47.75 38.9375C46.996094 38.148438 45.964844 37.476563 44.71875 36.875C42.226563 35.667969 38.84375 34.742188 34.84375 34.15625C34.292969 34.070313 33.773438 34.449219 33.6875 35C33.601563 35.550781 33.980469 36.070313 34.53125 36.15625C38.390625 36.722656 41.640625 37.621094 43.84375 38.6875C44.945313 39.222656 45.796875 39.804688 46.3125 40.34375C46.828125 40.882813 47 41.332031 47 41.75C47 42.324219 46.617188 42.984375 45.59375 43.75C44.570313 44.515625 42.980469 45.269531 40.96875 45.90625C36.945313 47.175781 31.265625 48 25 48C18.734375 48 13.054688 47.175781 9.03125 45.90625C7.019531 45.269531 5.429688 44.515625 4.40625 43.75C3.382813 42.984375 3 42.324219 3 41.75C3 41.332031 3.171875 40.882813 3.6875 40.34375C4.203125 39.804688 5.054688 39.222656 6.15625 38.6875C8.359375 37.621094 11.609375 36.722656 15.46875 36.15625C16.019531 36.070313 16.398438 35.550781 16.3125 35C16.226563 34.449219 15.707031 34.070313 15.15625 34.15625Z" fill="#5B5B5B" />
</svg>