<svg fill="#000000" xmlns="http://www.w3.org/2000/svg" viewBox="0 0 50 50" width="50px" height="50px"><path fill="none" stroke="#000000" stroke-linecap="round" stroke-linejoin="round" stroke-miterlimit="10" stroke-width="2" d="M49,38c0,2.209-1.791,4-4,4H5c-2.209,0-4-1.791-4-4V12c0-2.209,1.791-4,4-4h40c2.209,0,4,1.791,4,4V38z"/><path d="M16.465 19.639l-2.699 7.913c0 0-.155-.674-.22-1.093-1.537-3.444-4.031-4.707-4.031-4.707l2.367 8.998h3.251l4.487-11.112H16.465zM19.038 30.751L21.986 30.751 23.771 19.639 20.787 19.639z"/><path d="M13.411 25.799l-.993-5.042c0 0-.448-1.094-1.614-1.094-1.167 0-4.562 0-4.562 0S12.058 21.439 13.411 25.799zM27.954 22.821c0-.644.511-1.124 1.978-1.124.953 0 2.045.718 2.045.718l.477-2.456c0 0-1.397-.545-2.762-.545-3.102 0-4.703 1.534-4.703 3.476 0 3.51 4.089 3.031 4.089 4.836 0 .306-.239 1.022-1.941 1.022-1.706 0-2.831-.649-2.831-.649l-.51 2.355c0 0 1.092.646 3.205.646 2.113 0 5.045-1.635 5.045-3.987C32.045 24.286 27.954 24.081 27.954 22.821zM39.907 19.639h-3.102l-4.84 11.112h2.928l.607-1.586h3.691l.318 1.586h2.682L39.907 19.639zM36.318 27.041l1.605-4.199.841 4.199H36.318z"/></svg>