<svg width="68" height="80" viewBox="0 0 68 80" fill="none" xmlns="http://www.w3.org/2000/svg">
<g filter="url(#filter0_d)">
<rect x="15" y="11" width="50" height="50" rx="25" fill="white"/>
</g>
<g filter="url(#filter1_d)">
<circle cx="40" cy="36" r="9.75" fill="white"/>
</g>
<path fill-rule="evenodd" clip-rule="evenodd" d="M39.8 30C39.2477 30 38.8 29.5523 38.8 29V28.3423C35.3484 28.8789 32.6503 31.6931 32.2908 35.2002H33C33.5523 35.2002 34 35.6479 34 36.2002C34 36.7525 33.5523 37.2002 33 37.2002H32.3424C32.8584 40.5193 35.4807 43.1416 38.7998 43.6576V43C38.7998 42.4477 39.2475 42 39.7998 42C40.3521 42 40.7998 42.4477 40.7998 43V43.7092C44.3069 43.3497 47.1211 40.6516 47.6577 37.2H47C46.4477 37.2 46 36.7523 46 36.2C46 35.6477 46.4477 35.2 47 35.2H47.7092C47.3358 31.5587 44.4413 28.6642 40.8 28.2908V29C40.8 29.5523 40.3523 30 39.8 30ZM40.7998 45.7177C45.4125 45.3432 49.1175 41.758 49.6769 37.2H51C51.5523 37.2 52 36.7523 52 36.2C52 35.6477 51.5523 35.2 51 35.2H49.7177C49.3322 30.4533 45.5467 26.6678 40.8 26.2823V25C40.8 24.4477 40.3523 24 39.8 24C39.2477 24 38.8 24.4477 38.8 25V26.3231C34.242 26.8825 30.6568 30.5875 30.2823 35.2002H29C28.4477 35.2002 28 35.6479 28 36.2002C28 36.7525 28.4477 37.2002 29 37.2002H30.3231C30.8664 41.6254 34.3746 45.1336 38.7998 45.6769V47C38.7998 47.5523 39.2475 48 39.7998 48C40.3521 48 40.7998 47.5523 40.7998 47V45.7177ZM40 38.5C41.3807 38.5 42.5 37.3807 42.5 36C42.5 34.6193 41.3807 33.5 40 33.5C38.6193 33.5 37.5 34.6193 37.5 36C37.5 37.3807 38.6193 38.5 40 38.5Z" fill="#3E4958"/>
<defs>
<filter id="filter0_d" x="0" y="0" width="80" height="80" filterUnits="userSpaceOnUse" color-interpolation-filters="sRGB">
<feFlood flood-opacity="0" result="BackgroundImageFix"/>
<feColorMatrix in="SourceAlpha" type="matrix" values="0 0 0 0 0 0 0 0 0 0 0 0 0 0 0 0 0 0 127 0"/>
<feOffset dy="4"/>
<feGaussianBlur stdDeviation="7.5"/>
<feColorMatrix type="matrix" values="0 0 0 0 0 0 0 0 0 0 0 0 0 0 0 0 0 0 0.15 0"/>
<feBlend mode="normal" in2="BackgroundImageFix" result="effect1_dropShadow"/>
<feBlend mode="normal" in="SourceGraphic" in2="effect1_dropShadow" result="shape"/>
</filter>
<filter id="filter1_d" x="15.25" y="15.25" width="49.5" height="49.5" filterUnits="userSpaceOnUse" color-interpolation-filters="sRGB">
<feFlood flood-opacity="0" result="BackgroundImageFix"/>
<feColorMatrix in="SourceAlpha" type="matrix" values="0 0 0 0 0 0 0 0 0 0 0 0 0 0 0 0 0 0 127 0"/>
<feOffset dy="4"/>
<feGaussianBlur stdDeviation="7.5"/>
<feColorMatrix type="matrix" values="0 0 0 0 0 0 0 0 0 0 0 0 0 0 0 0 0 0 0.15 0"/>
<feBlend mode="normal" in2="BackgroundImageFix" result="effect1_dropShadow"/>
<feBlend mode="normal" in="SourceGraphic" in2="effect1_dropShadow" result="shape"/>
</filter>
</defs>
</svg>
