<svg width="35" height="28" viewBox="0 0 35 28" fill="none" xmlns="http://www.w3.org/2000/svg">
<path d="M32.168 6.89243C32.127 6.28343 31.884 5.71243 31.494 5.24843L31.137 3.19143C30.761 1.18543 28.905 -0.194571 26.875 0.0224288L3.485 3.75843C1.603 3.96043 0.135 5.48143 0 7.36943L1.761 18.5164C2.066 20.6854 3.912 22.3044 6.102 22.3294C6.779 22.3374 7.34 22.3464 7.565 22.3564L17.048 22.8194C16.685 23.3024 16.226 23.8994 16.226 24.5374V24.5894C16.226 26.1704 17.997 27.6494 19.579 27.6494H26.861C27.621 27.6494 28.349 27.2494 28.886 26.7114L33.31 22.2394C33.893 21.6554 34.197 20.8234 34.142 19.9994L32.168 6.89243Z" fill="#FFDC5D"/>
<path d="M7.44301 22.2715C6.96901 22.2715 6.54801 21.9335 6.46001 21.4505L4.40001 10.1185C4.30101 9.57549 4.66201 9.05449 5.20501 8.95549C5.75101 8.85849 6.26901 9.21749 6.36801 9.76049L8.42801 21.0925C8.52701 21.6355 8.16601 22.1555 7.62301 22.2545C7.56201 22.2665 7.50201 22.2715 7.44301 22.2715ZM13.624 22.2715C13.107 22.2715 12.669 21.8735 12.628 21.3485L11.598 7.95549C11.555 7.40449 11.968 6.92449 12.518 6.88149C13.067 6.83749 13.549 7.25249 13.592 7.80149L14.622 21.1935C14.665 21.7445 14.252 22.2255 13.702 22.2675C13.676 22.2705 13.649 22.2715 13.624 22.2715ZM20.831 23.3775C20.323 23.3775 20.074 23.3765 19.88 22.3155L19.836 22.3125C19.837 22.2575 19.843 22.2045 19.853 22.1515C19.679 21.0835 19.544 19.0825 19.292 15.3345C19.057 11.8445 18.806 7.78249 18.806 6.84949C18.806 6.29749 19.253 5.84949 19.806 5.84949C20.359 5.84949 20.806 6.29749 20.806 6.84949C20.806 8.38249 21.601 20.1735 21.787 21.9945C21.819 22.0915 21.836 22.1945 21.836 22.3025C21.836 22.5685 21.728 22.8595 21.541 23.0465C21.354 23.2335 21.097 23.3775 20.831 23.3775Z" fill="#EF9645"/>
<path d="M24.404 24.3325H17.746C17.194 24.3325 16.746 23.8855 16.746 23.3325C16.746 22.7795 17.194 22.3325 17.746 22.3325H24.404C25.862 22.3325 27.048 21.1465 27.048 19.6885V6.84949C27.048 6.29749 27.495 5.84949 28.048 5.84949C28.601 5.84949 29.048 6.29749 29.048 6.84949V19.6885C29.047 22.2495 26.964 24.3325 24.404 24.3325Z" fill="#EF9645"/>
</svg>
