<svg width="25" height="25" viewBox="0 0 25 25" fill="none" xmlns="http://www.w3.org/2000/svg">
<path d="M12.5 25C19.4036 25 25 19.4036 25 12.5C25 5.59644 19.4036 0 12.5 0C5.59644 0 0 5.59644 0 12.5C0 19.4036 5.59644 25 12.5 25Z" fill="#FFCC4D"/>
<path d="M11.1111 11.7764C10.8201 11.7764 10.5493 11.5924 10.4521 11.3014C10.3111 10.8854 9.74514 9.69305 9.02778 9.69305C8.29028 9.69305 7.71667 10.9618 7.60347 11.3014C7.48194 11.6646 7.09097 11.8625 6.725 11.7403C6.36111 11.6194 6.16458 11.2257 6.28611 10.8618C6.37292 10.6 7.19167 8.30347 9.02847 8.30347C10.8653 8.30347 11.6833 10.6 11.7708 10.8618C11.8924 11.2257 11.6958 11.6194 11.3319 11.7403C11.2583 11.7653 11.184 11.7764 11.1111 11.7764ZM18.0556 11.7764C17.7646 11.7764 17.4937 11.5924 17.3972 11.3014C17.2563 10.8854 16.6896 9.69305 15.9722 9.69305C15.2347 9.69305 14.6604 10.9618 14.5472 11.3014C14.4257 11.6646 14.0361 11.8625 13.6687 11.7403C13.3056 11.6194 13.1083 11.2257 13.2299 10.8618C13.3167 10.6 14.1354 8.30347 15.9715 8.30347C17.8076 8.30347 18.6264 10.6 18.7132 10.8618C18.8347 11.2257 18.6382 11.6194 18.2743 11.7403C18.2021 11.7653 18.1285 11.7764 18.0556 11.7764ZM18.9826 14.3687C18.859 14.2569 18.6743 14.25 18.5417 14.3486C18.5146 14.3687 15.8181 16.3625 12.5 16.3625C9.19028 16.3625 6.48472 14.3687 6.45833 14.3486C6.32569 14.25 6.14097 14.2583 6.01736 14.3687C5.89444 14.4799 5.86667 14.6632 5.95208 14.8049C6.04167 14.9542 8.18611 18.4458 12.5 18.4458C16.8139 18.4458 18.959 14.9542 19.0479 14.8049C19.1333 14.6625 19.1062 14.4806 18.9826 14.3687Z" fill="#664500"/>
<path d="M14.7424 2.74096C14.7424 2.90762 14.7632 3.06874 14.7993 3.22429C15.0944 5.05971 17.1354 6.99582 18.5979 7.52776C19.7542 7.10763 21.2688 5.80832 21.9993 4.37568C20.5486 2.68124 18.6528 1.37985 16.4931 0.652069C15.4986 0.830541 14.7424 1.69512 14.7424 2.74096ZM9.54375 20.193C9.58334 20.025 9.60625 19.85 9.60625 19.6694C9.60625 18.3965 8.57431 17.3646 7.30139 17.3646C6.52847 17.3646 5.84722 17.7458 5.42847 18.3292C5.01042 17.7465 4.32847 17.3646 3.55556 17.3646C2.69375 17.3646 1.9507 17.843 1.55556 18.5437C2.82222 20.8319 4.78472 22.6805 7.15834 23.8035C8.29514 22.8653 9.33264 21.5069 9.54375 20.193ZM23.8201 17.8069C23.6243 17.1472 23.0201 16.6632 22.2965 16.6632C21.7611 16.6632 21.2889 16.9271 20.9993 17.3312C20.7097 16.9271 20.2375 16.6632 19.7021 16.6632C18.8201 16.6632 18.1056 17.3778 18.1056 18.2597C18.1056 18.3847 18.1215 18.5055 18.1486 18.6222C18.3618 19.9451 19.7792 21.3278 20.8632 21.7896C22.0965 20.6785 23.1069 19.3264 23.8201 17.8069Z" fill="#FFAC33"/>
<path d="M23.3507 2.27015C23.3507 1.09515 22.3979 0.143066 21.2236 0.143066C20.5104 0.143066 19.8813 0.49515 19.4951 1.03334C19.109 0.49515 18.4799 0.143066 17.7667 0.143066C16.5917 0.143066 15.6396 1.09515 15.6396 2.27015C15.6396 2.43682 15.6604 2.59793 15.6965 2.75348C15.9924 4.5889 18.0326 6.52501 19.4951 7.05695C20.9576 6.52501 22.9979 4.5889 23.2931 2.75418C23.3299 2.59793 23.3507 2.43682 23.3507 2.27015ZM8.47778 19.7278C8.47778 18.4549 7.44583 17.4229 6.17292 17.4229C5.4 17.4229 4.71875 17.8042 4.3 18.3875C3.88195 17.8042 3.2 17.4229 2.42708 17.4229C1.15417 17.4229 0.122223 18.4549 0.122223 19.7278C0.122223 19.9083 0.14514 20.0826 0.184028 20.2514C0.504167 22.2396 2.71458 24.3375 4.29931 24.9139C5.88403 24.3382 8.09445 22.2403 8.41458 20.2521C8.45486 20.0826 8.47778 19.9076 8.47778 19.7278ZM24.9639 18.1438C24.9639 17.2618 24.2493 16.5472 23.3674 16.5472C22.8319 16.5472 22.3597 16.8111 22.0701 17.2153C21.7806 16.8111 21.3083 16.5472 20.7729 16.5472C19.891 16.5472 19.1764 17.2618 19.1764 18.1438C19.1764 18.2688 19.1924 18.3896 19.2194 18.5063C19.441 19.8833 20.9722 21.3368 22.0701 21.7354C23.1674 21.3368 24.6993 19.8833 24.9201 18.5063C24.9479 18.3896 24.9639 18.2688 24.9639 18.1438Z" fill="#DD2E44"/>
</svg>
