<?xml version="1.0" standalone="no"?>
<!DOCTYPE svg PUBLIC "-//W3C//DTD SVG 20010904//EN"
 "http://www.w3.org/TR/2001/REC-SVG-20010904/DTD/svg10.dtd">
<svg version="1.0" xmlns="http://www.w3.org/2000/svg"
 width="40.000000pt" height="40.000000pt" viewBox="0 0 40.000000 40.000000"
 preserveAspectRatio="xMidYMid meet">

<g transform="translate(0.000000,40.000000) scale(0.100000,-0.100000)"
fill="#000000" stroke="none">
<path d="M95 361 c-23 -10 -49 -30 -58 -44 -22 -33 -22 -100 -1 -133 16 -23
15 -26 -1 -44 -30 -34 -6 -46 51 -26 26 9 61 16 78 16 46 0 97 32 119 74 17
32 18 43 9 75 -14 44 -44 74 -91 90 -45 15 -59 14 -106 -8z m120 -15 c36 -15
65 -59 65 -100 0 -36 -45 -84 -91 -96 -22 -6 -46 -9 -52 -7 -7 2 -26 -2 -44
-10 -43 -17 -44 -17 -31 12 9 20 8 28 -5 43 -41 45 -27 109 32 149 39 26 77
29 126 9z"/>
<path d="M117 293 c18 -2 50 -2 70 0 21 2 7 4 -32 4 -38 0 -55 -2 -38 -4z"/>
<path d="M117 253 c18 -2 50 -2 70 0 21 2 7 4 -32 4 -38 0 -55 -2 -38 -4z"/>
<path d="M113 213 c15 -2 37 -2 50 0 12 2 0 4 -28 4 -27 0 -38 -2 -22 -4z"/>
<path d="M310 225 c0 -4 14 -20 30 -35 35 -33 38 -57 9 -94 -18 -23 -19 -29
-7 -43 12 -15 10 -16 -12 -9 -14 4 -47 12 -75 18 -53 10 -86 25 -97 42 -9 14
-22 0 -13 -14 11 -17 70 -40 104 -40 16 0 42 -7 57 -15 16 -8 37 -15 46 -15
26 0 33 21 13 36 -17 13 -17 15 -2 32 25 27 22 84 -5 109 -28 25 -48 36 -48
28z"/>
<path d="M285 170 c-3 -5 1 -10 9 -10 9 0 16 5 16 10 0 6 -4 10 -9 10 -6 0
-13 -4 -16 -10z"/>
<path d="M230 130 c-11 -7 -2 -10 33 -10 26 0 47 5 47 10 0 13 -60 13 -80 0z"/>
</g>
</svg>
