<?xml version="1.0" standalone="no"?>
<!DOCTYPE svg PUBLIC "-//W3C//DTD SVG 20010904//EN"
 "http://www.w3.org/TR/2001/REC-SVG-20010904/DTD/svg10.dtd">
<svg version="1.0" xmlns="http://www.w3.org/2000/svg"
 width="40.000000pt" height="40.000000pt" viewBox="0 0 40.000000 40.000000"
 preserveAspectRatio="xMidYMid meet">

<g transform="translate(0.000000,40.000000) scale(0.100000,-0.100000)"
fill="#000000" stroke="none">
<path d="M142 380 c-62 -38 -67 -110 -13 -220 17 -36 40 -76 51 -90 l20 -25
19 25 c11 13 34 53 52 89 54 109 50 183 -13 221 -42 25 -74 25 -116 0z m114
-15 c38 -26 48 -67 30 -127 -18 -59 -71 -158 -86 -158 -13 0 -66 95 -86 153
-19 56 -13 89 21 123 28 28 88 33 121 9z"/>
<path d="M165 315 c-14 -13 -25 -29 -25 -35 0 -14 46 -60 60 -60 6 0 22 11 35
25 14 13 25 29 25 35 0 14 -46 60 -60 60 -6 0 -22 -11 -35 -25z m65 -10 c15
-18 10 -45 -12 -59 -35 -22 -74 27 -48 59 16 19 44 19 60 0z"/>
<path d="M78 118 c-47 -12 -76 -43 -62 -66 29 -47 212 -67 308 -34 61 21 77
43 52 70 -19 21 -93 45 -101 32 -3 -4 15 -13 39 -19 121 -30 49 -81 -114 -81
-83 0 -140 11 -168 33 -19 15 3 34 58 50 53 15 42 28 -12 15z"/>
</g>
</svg>
