<?xml version="1.0" standalone="no"?>
<!DOCTYPE svg PUBLIC "-//W3C//DTD SVG 20010904//EN"
 "http://www.w3.org/TR/2001/REC-SVG-20010904/DTD/svg10.dtd">
<svg version="1.0" xmlns="http://www.w3.org/2000/svg"
 width="40.000000pt" height="40.000000pt" viewBox="0 0 40.000000 40.000000"
 preserveAspectRatio="xMidYMid meet">

<g transform="translate(0.000000,40.000000) scale(0.100000,-0.100000)"
fill="#000000" stroke="none">
<path d="M125 368 c-32 -17 -76 -61 -91 -90 -17 -32 -18 -121 -3 -151 17 -32
60 -77 91 -93 35 -18 121 -18 156 0 31 16 74 61 91 93 6 12 11 45 11 73 0 28
-5 61 -11 73 -17 32 -60 77 -91 93 -32 17 -125 18 -153 2z m141 -17 c86 -39
123 -131 86 -215 -23 -51 -27 -52 -77 -32 -38 16 -43 34 -19 70 10 16 14 42
12 77 -3 48 -6 55 -35 72 -34 20 -62 17 -88 -9 -20 -21 -20 -108 1 -144 22
-37 14 -55 -32 -70 -34 -12 -38 -11 -55 11 -45 60 -34 144 26 205 57 57 110
67 181 35z m-28 -47 c18 -12 22 -23 19 -58 -1 -23 -10 -54 -20 -69 -9 -14 -17
-33 -17 -40 0 -17 28 -43 58 -51 29 -9 28 -19 -5 -37 -48 -26 -173 -10 -173
22 0 4 10 11 23 15 29 8 57 34 57 51 0 7 -8 26 -17 40 -37 56 -19 143 30 143
12 0 33 -7 45 -16z"/>
</g>
</svg>
