<svg width="31" height="20" viewBox="0 0 31 20" fill="none" xmlns="http://www.w3.org/2000/svg">
<path d="M28.4 4.98559C28.3638 4.54507 28.1492 4.13204 27.8049 3.79641L27.4897 2.3085C27.1578 0.857471 25.5192 -0.140742 23.727 0.0162237L3.07678 2.71863C1.41523 2.86475 0.119187 3.96495 0 5.33062L1.55472 13.3937C1.824 14.9626 3.45376 16.1337 5.38724 16.1518C5.98494 16.1576 6.48022 16.1641 6.67887 16.1714L15.0511 16.5063C14.7306 16.8556 14.3254 17.2875 14.3254 17.749V17.7866C14.3254 18.9302 15.8889 20 17.2856 20H23.7146C24.3856 20 25.0283 19.7107 25.5024 19.3215L29.4082 16.0867C29.9229 15.6643 30.1913 15.0625 30.1427 14.4664L28.4 4.98559Z" fill="#FFDC5D"/>
<path d="M6.57117 16.1098C6.15269 16.1098 5.781 15.8653 5.70331 15.5159L3.88461 7.31903C3.79721 6.92625 4.11592 6.54939 4.59532 6.47778C5.07736 6.40762 5.53469 6.6673 5.62209 7.06007L7.44079 15.257C7.52819 15.6498 7.20948 16.0259 6.73008 16.0975C6.67623 16.1062 6.62326 16.1098 6.57117 16.1098ZM12.0281 16.1098C11.5717 16.1098 11.185 15.8219 11.1488 15.4422L10.2395 5.75444C10.2015 5.35588 10.5661 5.00867 11.0517 4.97757C11.5364 4.94574 11.9619 5.24593 11.9999 5.64304L12.9092 15.33C12.9472 15.7286 12.5826 16.0765 12.097 16.1069C12.0741 16.1091 12.0502 16.1098 12.0281 16.1098ZM18.391 16.9098C17.9425 16.9098 17.7226 16.9091 17.5513 16.1416L17.5125 16.1395C17.5134 16.0997 17.5187 16.0613 17.5275 16.023C17.3739 15.2505 17.2547 13.8031 17.0322 11.092C16.8247 8.56752 16.6032 5.6293 16.6032 4.95442C16.6032 4.55514 16.9978 4.23108 17.486 4.23108C17.9742 4.23108 18.3689 4.55514 18.3689 4.95442C18.3689 6.06331 19.0708 14.5922 19.235 15.9094C19.2632 15.9796 19.2782 16.0541 19.2782 16.1322C19.2782 16.3246 19.1829 16.5351 19.0178 16.6704C18.8527 16.8057 18.6258 16.9098 18.391 16.9098Z" fill="#EF9645"/>
<path d="M21.5454 17.6006H15.6673C15.1799 17.6006 14.7844 17.2773 14.7844 16.8773C14.7844 16.4773 15.1799 16.1539 15.6673 16.1539H21.5454C22.8326 16.1539 23.8797 15.296 23.8797 14.2414V4.95442C23.8797 4.55514 24.2743 4.23108 24.7625 4.23108C25.2508 4.23108 25.6454 4.55514 25.6454 4.95442V14.2414C25.6445 16.0939 23.8055 17.6006 21.5454 17.6006Z" fill="#EF9645"/>
</svg>
