<svg width="38" height="38" viewBox="0 0 38 38" fill="none" xmlns="http://www.w3.org/2000/svg">
<path d="M19 0C8.50672 0 0 8.50672 0 19C0 29.4933 8.50672 38 19 38C29.4933 38 38 29.4933 38 19C38 8.50672 29.4933 0 19 0ZM2.16389 20.0556H6.36817C6.46528 22.7008 6.91917 25.1972 7.66544 27.4444H4.389C3.11494 25.2457 2.33067 22.7377 2.16389 20.0556ZM20.0556 8.44444V2.19661C22.9552 2.65683 25.5043 4.99911 27.2323 8.44444H20.0556ZM28.1316 10.5556C28.9275 12.7543 29.4183 15.2633 29.5218 17.9444H20.0556V10.5556H28.1316ZM17.9444 2.19661V8.44444H10.7677C12.4946 4.99911 15.0448 2.65683 17.9444 2.19661ZM17.9444 10.5556V17.9444H8.47822C8.58167 15.2633 9.0725 12.7543 9.86839 10.5556H17.9444ZM6.36922 17.9444H2.16389C2.33067 15.2633 3.11494 12.7543 4.38794 10.5556H7.66439C6.92022 12.8028 6.46633 15.3003 6.36922 17.9444ZM8.47822 20.0556H17.9444V27.4444H9.86839C9.0725 25.2457 8.58167 22.7377 8.47822 20.0556ZM17.9444 29.5556V35.8034C15.0448 35.3421 12.4946 33.0009 10.7677 29.5556H17.9444ZM20.0556 35.8034V29.5556H27.2333C25.5054 33.0009 22.9552 35.3421 20.0556 35.8034ZM20.0556 27.4444V20.0556H29.5228C29.4183 22.7377 28.9286 25.2457 28.1327 27.4444H20.0556ZM31.6318 20.0556H35.8351C35.6693 22.7377 34.8851 25.2457 33.611 27.4444H30.3346C31.0798 25.1972 31.5337 22.7008 31.6318 20.0556ZM31.6318 17.9444C31.5337 15.3003 31.0798 12.8028 30.3346 10.5556H33.611C34.8851 12.7543 35.6693 15.2633 35.8351 17.9444H31.6318ZM32.1723 8.44444H29.5302C28.7734 6.75133 27.835 5.26194 26.7657 4.01217C28.8652 5.1015 30.7051 6.61517 32.1723 8.44444ZM11.2343 4.01217C10.1639 5.26194 9.22556 6.75133 8.46872 8.44444H5.82772C7.29494 6.61517 9.13478 5.10256 11.2343 4.01217ZM5.82772 29.5556H8.46978C9.22556 31.2487 10.1639 32.7381 11.2343 33.9868C9.13478 32.8974 7.29494 31.3848 5.82772 29.5556ZM26.7657 33.9868C27.8361 32.737 28.7734 31.2487 29.5302 29.5556H32.1723C30.7051 31.3848 28.8652 32.8974 26.7657 33.9868Z" fill="#3E4958"/>
</svg>
