<svg width="79" height="80" viewBox="0 0 79 80" fill="none" xmlns="http://www.w3.org/2000/svg">
<path d="M5.90454 57.7778H23.6823V80.0001H5.90454V57.7778ZM54.7934 57.7778H72.5712V80.0001H54.7934V57.7778Z" fill="#FFDC5D"/>
<path d="M72.5712 63.8221C72.5712 63.8221 65.9045 68.2666 54.7934 66.0443V54.9332H72.5712V63.8221ZM5.90454 63.8221C5.90454 63.8221 12.5712 68.2666 23.6823 66.0443V54.9332H5.90454V63.8221Z" fill="#F9CA55"/>
<path d="M8.08899 41.3422H25.8668V59.12H8.08899V41.3422ZM52.5845 40.2311H70.3623V58.0089H52.5845V40.2311Z" fill="#EF9645"/>
<path d="M0.0667522 26.2999C0.0667522 26.2999 0.0734192 23.5777 2.79342 23.5844C5.51786 23.5933 5.50897 26.3155 5.50897 26.3155L5.46675 38.9466C5.90009 38.7466 6.35342 38.5666 6.82897 38.411L6.88453 20.8799C6.88453 20.8799 6.89342 18.1577 9.6112 18.1666C12.3312 18.1733 12.3245 20.8977 12.3245 20.8977L12.2779 37.3866C12.7201 37.3466 13.1756 37.3155 13.6334 37.2933L13.6956 18.1777C13.6956 18.1777 13.7023 15.4555 16.4245 15.4666C19.1468 15.4755 19.1356 18.1977 19.1356 18.1977L19.0734 37.3088C19.5401 37.3355 19.989 37.3821 20.4379 37.4244L20.4934 19.5599C20.4934 19.5599 20.5023 16.8377 23.2201 16.8488C25.9401 16.8555 25.929 19.5755 25.929 19.5755L25.8756 38.4666L25.869 39.9799V41.3377C17.7045 41.3177 12.2401 48.0977 12.2156 54.9021C12.2156 56.2621 13.5756 56.271 13.5756 56.271C13.5979 48.0977 19.0579 42.6821 27.2245 42.7066L31.2268 33.3999C31.2268 33.3999 32.1045 30.8244 34.6845 31.7066C37.2579 32.5777 36.3845 35.1577 36.3845 35.1577L34.4001 42.0577C33.6134 44.7999 32.8779 47.5599 32.4912 50.3777C31.3845 58.3421 24.5334 64.4666 16.2712 64.4444C7.26009 64.4066 -0.0288033 57.0777 8.55781e-05 48.0666C0.0023078 47.591 0.0311967 47.1377 0.0756412 46.711L0.00453003 46.7021L0.0667522 26.2999ZM78.3868 26.2999C78.3868 26.2999 78.3801 23.5777 75.6601 23.5844C72.9356 23.5933 72.9423 26.3155 72.9423 26.3155L72.9845 38.9466C72.5534 38.7466 72.0979 38.5666 71.6245 38.411L71.569 20.8799C71.569 20.8799 71.5601 18.1577 68.8423 18.1666C66.1201 18.1733 66.1268 20.8977 66.1268 20.8977L66.1756 37.3866C65.7356 37.3466 65.2801 37.3155 64.8201 37.2933L64.7601 18.1777C64.7601 18.1777 64.7512 15.4555 62.029 15.4666C59.3068 15.4755 59.3179 18.1977 59.3179 18.1977L59.3801 37.3088C58.9134 37.3355 58.4645 37.3821 58.0156 37.4244L57.9601 19.5599C57.9601 19.5599 57.949 16.8377 55.2312 16.8488C52.5112 16.8555 52.5223 19.5755 52.5223 19.5755L52.5756 38.4666L52.5823 39.9799V41.3377C60.7467 41.3177 66.2112 48.0977 66.2379 54.9021C66.2379 56.2621 64.8779 56.271 64.8779 56.271C64.8534 48.0977 59.3934 42.6821 51.229 42.7066L47.2267 33.3999C47.2267 33.3999 46.3512 30.8244 43.769 31.7066C41.1979 32.5777 42.069 35.1577 42.069 35.1577L44.0534 42.0577C44.8401 44.7999 45.5756 47.5599 45.9623 50.3777C47.069 58.3421 53.9179 64.4666 62.1823 64.4444C71.1934 64.4066 78.4845 57.0777 78.4534 48.0666C78.4512 47.591 78.4223 47.1377 78.3779 46.711L78.449 46.7021L78.3868 26.2999Z" fill="#FFDC5D"/>
<path d="M51.5512 14.3511C51.0779 14.3511 50.5979 14.2 50.1956 13.8889C49.2223 13.1378 49.0445 11.7422 49.7956 10.7711L56.4156 2.20444C57.1601 1.23556 58.5601 1.04889 59.5312 1.80444C60.5045 2.55556 60.6823 3.95111 59.9312 4.92222L53.3112 13.4889C52.8756 14.0556 52.2179 14.3511 51.5512 14.3511ZM27.0623 14.3511C26.3979 14.3511 25.7401 14.0533 25.3023 13.4867L18.6823 4.92222C17.9334 3.95111 18.1134 2.55556 19.0845 1.80444C20.0556 1.05556 21.449 1.23333 22.2023 2.20444L28.8223 10.7711C29.5712 11.7422 29.3934 13.1378 28.4223 13.8889C28.0156 14.2022 27.5379 14.3511 27.0623 14.3511ZM39.2379 13.3333C38.0112 13.3333 37.0156 12.3378 37.0156 11.1111V2.22222C37.0156 0.995556 38.0112 0 39.2379 0C40.4668 0 41.4601 0.995556 41.4601 2.22222V11.1111C41.4601 12.3378 40.4668 13.3333 39.2379 13.3333Z" fill="#5DADEC"/>
</svg>
