<svg width="36" height="41" viewBox="0 0 36 41" fill="none" xmlns="http://www.w3.org/2000/svg">
<path d="M19.47 17.5833L19.8701 16.8451L28.228 1.42236C28.228 1.42233 28.228 1.4223 28.228 1.42227C28.3689 1.1621 28.3028 0.838927 28.0436 0.645789L28.0422 0.644687C27.9152 0.549371 27.7592 0.5 27.5996 0.5C27.4301 0.5 27.2637 0.556778 27.1327 0.66367C27.1326 0.663757 27.1325 0.663843 27.1324 0.663929L18.3166 7.8897L0.733225 22.3023C0.515244 22.481 0.448028 22.7555 0.540688 22.9911C0.63668 23.235 0.892613 23.4167 1.1998 23.4167H15.6897H16.5294L16.1293 24.1549L7.7714 39.5776C7.77138 39.5777 7.77137 39.5777 7.77135 39.5777C7.63048 39.8379 7.69652 40.1611 7.95571 40.3542L7.95718 40.3553C8.08412 40.4506 8.24017 40.5 8.39974 40.5C8.56916 40.5 8.73545 40.4433 8.86638 40.3365L19.47 17.5833ZM19.47 17.5833H20.3097H34.7996C35.1077 17.5833 35.3636 17.7646 35.4595 18.0068C35.5522 18.2453 35.4841 18.5195 35.2667 18.6972L35.2662 18.6977L17.6827 33.1103L8.86697 40.3361L19.47 17.5833Z" fill="white" stroke="#3E4958"/>
</svg>
