<svg width="20" height="22" viewBox="0 0 20 22" fill="none" xmlns="http://www.w3.org/2000/svg">
<path d="M19.018 10.4986C19.018 10.1998 18.9467 9.91944 18.8273 9.66462C18.0308 7.09507 14.3018 7.28277 8.99759 7.15744C8.11078 7.13665 8.61803 6.08947 8.92928 3.79077C9.13182 2.29573 8.1678 0 6.54742 0C3.87571 0 6.44585 2.10743 4.0836 7.319C2.8214 10.1036 0 8.54379 0 11.3408V17.7077C0 18.7964 0.106916 19.843 1.63819 20.0153C3.12254 20.1822 2.78873 21.2401 4.93002 21.2401H15.6478C16.7395 21.2401 17.6275 20.3515 17.6275 19.2597C17.6275 18.8071 17.4689 18.3949 17.2129 18.0611C17.8188 17.7219 18.2345 17.0816 18.2345 16.3392C18.2345 15.8877 18.0765 15.4755 17.8211 15.1423C18.4288 14.8037 18.8457 14.1628 18.8457 13.4192C18.8457 12.8792 18.6272 12.3898 18.2749 12.0316C18.7246 11.6687 19.018 11.1199 19.018 10.4986Z" fill="#FFDB5E"/>
<path d="M11.9283 12.4784H17.0389C17.7338 12.4784 18.386 12.1065 18.7412 11.5084C18.8873 11.2619 18.806 10.9429 18.5589 10.7962C18.3124 10.6495 17.9934 10.7321 17.8467 10.9786C17.6786 11.2631 17.3679 11.4389 17.0383 11.4389H11.8053C11.2868 11.4389 10.8651 11.0172 10.8651 10.4987C10.8651 9.98011 11.2868 9.55838 11.8053 9.55838H15.3021C15.589 9.55838 15.8218 9.32554 15.8218 9.03865C15.8218 8.75176 15.589 8.51892 15.3021 8.51892H11.8047C10.713 8.51892 9.82501 9.40692 9.82501 10.4987C9.82501 11.1075 10.1072 11.6462 10.5408 12.0097C10.1755 12.3691 9.94797 12.868 9.94797 13.4192C9.94797 14.0299 10.2319 14.5704 10.6679 14.9333C10.3049 15.2921 10.0798 15.7892 10.0798 16.3392C10.0798 17.0045 10.4119 17.5913 10.9167 17.9507C10.6055 18.3006 10.4107 18.7561 10.4107 19.2598C10.4107 20.3516 11.2987 21.2396 12.3904 21.2396H15.6478C16.3427 21.2396 16.9955 20.8683 17.3507 20.2702C17.4974 20.0237 17.4161 19.7047 17.1696 19.558C16.9225 19.4125 16.6035 19.4927 16.4574 19.7392C16.2881 20.0237 15.9774 20.2001 15.6478 20.2001H12.3904C11.8719 20.2001 11.4501 19.7784 11.4501 19.2598C11.4501 18.7413 11.8719 18.3196 12.3904 18.3196H16.2548C16.9498 18.3196 17.6032 17.9477 17.9578 17.3496C18.1045 17.1025 18.0231 16.7835 17.7766 16.6374C17.5277 16.4883 17.2099 16.5721 17.0644 16.8186C16.8928 17.1078 16.5898 17.2801 16.2548 17.2801H12.0596C11.541 17.2801 11.1193 16.8578 11.1193 16.3392C11.1193 15.8207 11.541 15.399 12.0596 15.399H16.8654C17.5604 15.399 18.2132 15.0277 18.5684 14.4296C18.7151 14.1831 18.6337 13.8641 18.3872 13.7174C18.1395 13.5713 17.8211 13.6521 17.675 13.8986C17.5034 14.1873 17.2004 14.3595 16.8654 14.3595H11.9283C11.4097 14.3595 10.988 13.9378 10.988 13.4192C10.988 12.9007 11.4092 12.4784 11.9283 12.4784Z" fill="#EE9547"/>
</svg>
