<svg width="45" height="45" viewBox="0 0 45 45" fill="none" xmlns="http://www.w3.org/2000/svg">
<mask id="mask0" mask-type="alpha" maskUnits="userSpaceOnUse" x="0" y="0" width="45" height="45">
<circle cx="22.5" cy="22.5" r="22.5" fill="#C4C4C4"/>
</mask>
<g mask="url(#mask0)">
<g filter="url(#filter0_d)">
<path d="M6.75 39.8572V49.1786L22.5 53.3572L38.25 49.1786V39.8572C38.25 38.3143 36.9643 36.9643 36 36.6429L26.6786 33.1072H18.9643C16.3929 33.9643 10.8 35.8715 9 36.6429C7.2 37.4143 6.75 39.1072 6.75 39.8572Z" fill="white"/>
<path d="M6.75 39.8572V49.1786L22.5 53.3572L38.25 49.1786V39.8572C38.25 38.3143 36.9643 36.9643 36 36.6429L26.6786 33.1072H18.9643C16.3929 33.9643 10.8 35.8715 9 36.6429C7.2 37.4143 6.75 39.1072 6.75 39.8572Z" stroke="#3E4958" stroke-width="2"/>
</g>
<g filter="url(#filter1_d)">
<path d="M17.0357 33.4286V27H27.9643V33.4286L22.5 35.6786L17.0357 33.4286Z" fill="white"/>
<path d="M17.0357 33.4286V27H27.9643V33.4286L22.5 35.6786L17.0357 33.4286Z" stroke="#3E4958" stroke-width="2"/>
</g>
<g filter="url(#filter2_d)">
<path d="M32.7857 4.82141H20.25C12.8572 4.82141 12.2143 11.5714 12.2143 13.5C12.2143 15.0641 12.9643 17.3571 13.5 18.3214C13.5 25.3928 16.3929 29.8928 22.5 29.8928C29.25 29.8928 31.8214 24.75 31.8214 18.3214C31.8214 18.3214 32.7857 16.0169 32.7857 14.4643V4.82141Z" fill="white"/>
<path d="M32.7857 4.82141H20.25C12.8572 4.82141 12.2143 11.5714 12.2143 13.5C12.2143 15.0641 12.9643 17.3571 13.5 18.3214C13.5 25.3928 16.3929 29.8928 22.5 29.8928C29.25 29.8928 31.8214 24.75 31.8214 18.3214C31.8214 18.3214 32.7857 16.0169 32.7857 14.4643V4.82141Z" stroke="#3E4958" stroke-width="2"/>
</g>
<path d="M15.0714 16.0714C15.0714 16.6237 15.5191 17.0714 16.0714 17.0714C16.6237 17.0714 17.0714 16.6237 17.0714 16.0714H15.0714ZM28.6687 15.9212C29.1182 16.2422 29.7427 16.1381 30.0637 15.6887C30.3847 15.2393 30.2806 14.6147 29.8312 14.2937L28.6687 15.9212ZM16.9498 13.0699L16.8268 12.0775L16.9498 13.0699ZM17.0714 16.0714V14.0648H15.0714V16.0714H17.0714ZM17.0728 14.0623C20.568 13.6291 24.8785 13.2139 28.6687 15.9212L29.8312 14.2937C25.3415 11.0868 20.2839 11.649 16.8268 12.0775L17.0728 14.0623ZM17.0714 14.0648C17.0714 14.0632 17.0716 14.0633 17.0714 14.0638C17.0713 14.0639 17.0715 14.0634 17.0721 14.0627C17.0728 14.062 17.0731 14.0619 17.0727 14.0621C17.0719 14.0625 17.0715 14.0625 17.0728 14.0623L16.8268 12.0775C15.8228 12.2019 15.0714 13.0555 15.0714 14.0648H17.0714Z" fill="#3E4958"/>
<path d="M22.5 35.3572V46.6072" stroke="#3E4958" stroke-width="2" stroke-linecap="round"/>
<g filter="url(#filter3_d)">
<path d="M19.826 38.2742L22.5 35.3571L17.0357 31.8214L15.1071 33.4286L18.2568 38.1531C18.6168 38.693 19.3876 38.7525 19.826 38.2742Z" fill="white"/>
<path d="M22.5 35.3571L23.2371 36.0329L24.0368 35.1605L23.0432 34.5176L22.5 35.3571ZM19.826 38.2742L19.0889 37.5984L19.826 38.2742ZM18.2568 38.1531L19.0889 37.5984H19.0889L18.2568 38.1531ZM15.1071 33.4286L14.4669 32.6603C14.0743 32.9875 13.9916 33.558 14.2751 33.9833L15.1071 33.4286ZM17.0357 31.8214L17.5789 30.9818L16.961 30.582L16.3955 31.0532L17.0357 31.8214ZM21.7628 34.6814L19.0889 37.5984L20.5632 38.9499L23.2371 36.0329L21.7628 34.6814ZM19.0889 37.5984L15.9392 32.8739L14.2751 33.9833L17.4248 38.7078L19.0889 37.5984ZM15.7473 34.1968L17.6759 32.5896L16.3955 31.0532L14.4669 32.6603L15.7473 34.1968ZM16.4924 32.661L21.9567 36.1967L23.0432 34.5176L17.5789 30.9818L16.4924 32.661ZM19.0889 37.5984L19.0889 37.5984L17.4248 38.7078C18.1446 39.7876 19.6863 39.9065 20.5632 38.9499L19.0889 37.5984Z" fill="#3E4958"/>
</g>
<g filter="url(#filter4_d)">
<path d="M25.174 38.2742L22.5 35.3571L27.9643 31.8214L29.8929 33.4286L26.7432 38.1531C26.3832 38.693 25.6124 38.7525 25.174 38.2742Z" fill="white"/>
<path d="M22.5 35.3571L21.7629 36.0329L20.9632 35.1605L21.9568 34.5176L22.5 35.3571ZM25.174 38.2742L25.9111 37.5984L25.174 38.2742ZM26.7432 38.1531L25.9111 37.5984H25.9111L26.7432 38.1531ZM29.8929 33.4286L30.5331 32.6603C30.9257 32.9875 31.0084 33.558 30.7249 33.9833L29.8929 33.4286ZM27.9643 31.8214L27.4211 30.9818L28.039 30.582L28.6045 31.0532L27.9643 31.8214ZM23.2372 34.6814L25.9111 37.5984L24.4368 38.9499L21.7629 36.0329L23.2372 34.6814ZM25.9111 37.5984L29.0608 32.8739L30.7249 33.9833L27.5752 38.7078L25.9111 37.5984ZM29.2527 34.1968L27.3241 32.5896L28.6045 31.0532L30.5331 32.6603L29.2527 34.1968ZM28.5076 32.661L23.0433 36.1967L21.9568 34.5176L27.4211 30.9818L28.5076 32.661ZM25.9111 37.5984L25.9111 37.5984L27.5752 38.7078C26.8554 39.7876 25.3137 39.9065 24.4368 38.9499L25.9111 37.5984Z" fill="#3E4958"/>
</g>
</g>
<defs>
<filter id="filter0_d" x="-4.25" y="26.1072" width="53.5" height="42.2846" filterUnits="userSpaceOnUse" color-interpolation-filters="sRGB">
<feFlood flood-opacity="0" result="BackgroundImageFix"/>
<feColorMatrix in="SourceAlpha" type="matrix" values="0 0 0 0 0 0 0 0 0 0 0 0 0 0 0 0 0 0 127 0"/>
<feOffset dy="4"/>
<feGaussianBlur stdDeviation="5"/>
<feColorMatrix type="matrix" values="0 0 0 0 0 0 0 0 0 0 0 0 0 0 0 0 0 0 0.15 0"/>
<feBlend mode="normal" in2="BackgroundImageFix" result="effect1_dropShadow"/>
<feBlend mode="normal" in="SourceGraphic" in2="effect1_dropShadow" result="shape"/>
</filter>
<filter id="filter1_d" x="6.03571" y="20" width="32.9286" height="30.76" filterUnits="userSpaceOnUse" color-interpolation-filters="sRGB">
<feFlood flood-opacity="0" result="BackgroundImageFix"/>
<feColorMatrix in="SourceAlpha" type="matrix" values="0 0 0 0 0 0 0 0 0 0 0 0 0 0 0 0 0 0 127 0"/>
<feOffset dy="4"/>
<feGaussianBlur stdDeviation="5"/>
<feColorMatrix type="matrix" values="0 0 0 0 0 0 0 0 0 0 0 0 0 0 0 0 0 0 0.15 0"/>
<feBlend mode="normal" in2="BackgroundImageFix" result="effect1_dropShadow"/>
<feBlend mode="normal" in="SourceGraphic" in2="effect1_dropShadow" result="shape"/>
</filter>
<filter id="filter2_d" x="1.21429" y="-2.17859" width="42.5714" height="47.0714" filterUnits="userSpaceOnUse" color-interpolation-filters="sRGB">
<feFlood flood-opacity="0" result="BackgroundImageFix"/>
<feColorMatrix in="SourceAlpha" type="matrix" values="0 0 0 0 0 0 0 0 0 0 0 0 0 0 0 0 0 0 127 0"/>
<feOffset dy="4"/>
<feGaussianBlur stdDeviation="5"/>
<feColorMatrix type="matrix" values="0 0 0 0 0 0 0 0 0 0 0 0 0 0 0 0 0 0 0.15 0"/>
<feBlend mode="normal" in2="BackgroundImageFix" result="effect1_dropShadow"/>
<feBlend mode="normal" in="SourceGraphic" in2="effect1_dropShadow" result="shape"/>
</filter>
<filter id="filter3_d" x="4.10706" y="24.582" width="29.9297" height="29.0165" filterUnits="userSpaceOnUse" color-interpolation-filters="sRGB">
<feFlood flood-opacity="0" result="BackgroundImageFix"/>
<feColorMatrix in="SourceAlpha" type="matrix" values="0 0 0 0 0 0 0 0 0 0 0 0 0 0 0 0 0 0 127 0"/>
<feOffset dy="4"/>
<feGaussianBlur stdDeviation="5"/>
<feColorMatrix type="matrix" values="0 0 0 0 0 0 0 0 0 0 0 0 0 0 0 0 0 0 0.15 0"/>
<feBlend mode="normal" in2="BackgroundImageFix" result="effect1_dropShadow"/>
<feBlend mode="normal" in="SourceGraphic" in2="effect1_dropShadow" result="shape"/>
</filter>
<filter id="filter4_d" x="10.9632" y="24.582" width="29.9297" height="29.0165" filterUnits="userSpaceOnUse" color-interpolation-filters="sRGB">
<feFlood flood-opacity="0" result="BackgroundImageFix"/>
<feColorMatrix in="SourceAlpha" type="matrix" values="0 0 0 0 0 0 0 0 0 0 0 0 0 0 0 0 0 0 127 0"/>
<feOffset dy="4"/>
<feGaussianBlur stdDeviation="5"/>
<feColorMatrix type="matrix" values="0 0 0 0 0 0 0 0 0 0 0 0 0 0 0 0 0 0 0.15 0"/>
<feBlend mode="normal" in2="BackgroundImageFix" result="effect1_dropShadow"/>
<feBlend mode="normal" in="SourceGraphic" in2="effect1_dropShadow" result="shape"/>
</filter>
</defs>
</svg>
