<svg width="31" height="33" viewBox="0 0 31 33" fill="none" xmlns="http://www.w3.org/2000/svg">
<path d="M31 17.2852C31 15.4052 30.6654 13.6026 30.0518 11.935C29.6324 16.8485 27.0129 19.3723 24.2757 18.197C21.7119 17.0956 23.4396 12.8021 23.5673 10.7534C23.7825 7.28044 23.5564 3.30515 17.2479 0C19.8692 5.01471 17.5515 8.13021 15.1207 8.31985C12.4237 8.53047 9.95373 6.00215 10.8655 1.89921C7.91321 4.07468 7.8275 7.73632 8.73835 10.1051C9.68841 12.5741 8.70006 14.6256 6.38327 14.8536C3.79385 15.1089 2.35509 12.0809 3.68171 7.25582C1.38588 9.95921 0 13.4604 0 17.2852C0 25.8458 6.93944 32.7852 15.5 32.7852C24.0606 32.7852 31 25.8458 31 17.2852Z" fill="#F4900C"/>
<path d="M24.9769 21.8431C25.1118 24.655 22.6419 25.7574 21.3125 25.2249C19.3923 24.4563 19.9075 23.136 19.4133 20.4007C18.9191 17.6654 17.0199 15.7662 14.2089 14.9301C16.2604 20.7044 13.072 22.8324 11.4007 23.2126C9.69388 23.601 7.97885 23.2117 7.78282 19.5592C5.79153 21.5414 4.55882 24.2839 4.55882 27.3146C4.55882 27.6502 4.57979 27.9802 4.60897 28.3085C7.40809 31.0748 11.253 32.7852 15.5 32.7852C19.747 32.7852 23.5919 31.0748 26.391 28.3085C26.4202 27.9802 26.4412 27.6502 26.4412 27.3146C26.4412 25.3206 25.9087 23.4524 24.9769 21.8431Z" fill="#FFCC4D"/>
</svg>
